<?xml version="1.0" standalone="yes"?><svg width="1474px" height="200px" xmlns="http://www.w3.org/2000/svg" version="1.1"><polygon points="4,64 8,88 20,88" fill="rgba(51, 51, 51, 51)" /><polygon points="20,88 16,96 32,104" fill="rgba(51, 51, 51, 51)" /><polygon points="16,96 8,136 32,104" fill="rgba(51, 51, 51, 51)" /><polygon points="28,60 20,88 40,96" fill="rgba(51, 51, 51, 51)" /><polygon points="28,60 40,96 60,76" fill="rgba(51, 51, 51, 51)" /><polygon points="40,96 56,88 60,76" fill="rgba(51, 51, 51, 51)" /><polygon points="60,104 60,124 80,112" fill="rgba(51, 51, 51, 51)" /><polygon points="60,124 68,136 80,112" fill="rgba(51, 51, 51, 51)" /><polygon points="80,112 68,136 88,132" fill="rgba(48, 48, 48, 48)" /><polygon points="76,84 60,104 80,112" fill="rgba(51, 51, 51, 51)" /><polygon points="76,84 80,84 92,68" fill="rgba(51, 51, 51, 51)" /><polygon points="76,84 80,112 80,84" fill="rgba(51, 51, 51, 51)" /><polygon points="112,124 116,120 116,112" fill="rgba(51, 51, 51, 51)" /><polygon points="88,132 92,144 112,124" fill="rgba(51, 51, 51, 51)" /><polygon points="116,112 116,120 120,116" fill="rgba(51, 51, 51, 51)" /><polygon points="124,84 80,84 124,100" fill="rgba(51, 51, 51, 51)" /><polygon points="116,112 120,116 124,100" fill="rgba(51, 51, 51, 51)" /><polygon points="124,100 136,120 140,100" fill="rgba(51, 51, 51, 51)" /><polygon points="140,96 124,100 140,100" fill="rgba(51, 51, 51, 51)" /><polygon points="136,120 128,124 144,128" fill="rgba(51, 51, 51, 51)" /><polygon points="128,124 144,136 144,128" fill="rgba(51, 51, 51, 51)" /><polygon points="140,100 136,120 148,112" fill="rgba(51, 51, 51, 51)" /><polygon points="136,120 144,128 148,112" fill="rgba(51, 51, 51, 51)" /><polygon points="148,76 140,96 156,80" fill="rgba(51, 51, 51, 51)" /><polygon points="172,68 156,80 172,76" fill="rgba(51, 51, 51, 51)" /><polygon points="148,76 156,80 172,68" fill="rgba(51, 51, 51, 51)" /><polygon points="172,76 176,80 188,68" fill="rgba(51, 51, 51, 51)" /><polygon points="148,112 144,128 168,148" fill="rgba(51, 51, 51, 51)" /><polygon points="176,44 192,48 196,28" fill="rgba(50, 50, 50, 50)" /><polygon points="200,60 188,68 200,68" fill="rgba(51, 51, 51, 51)" /><polygon points="184,60 188,68 200,60" fill="rgba(51, 51, 51, 51)" /><polygon points="192,48 184,60 200,60" fill="rgba(51, 51, 51, 51)" /><polygon points="196,48 192,48 200,60" fill="rgba(51, 51, 51, 51)" /><polygon points="176,80 180,100 196,100" fill="rgba(51, 51, 51, 51)" /><polygon points="172,100 168,148 180,100" fill="rgba(51, 51, 51, 51)" /><polygon points="180,100 168,148 204,112" fill="rgba(51, 51, 51, 51)" /><polygon points="188,68 176,80 196,100" fill="rgba(51, 51, 51, 51)" /><polygon points="192,48 196,48 196,28" fill="rgba(51, 51, 51, 51)" /><polygon points="196,28 196,48 212,48" fill="rgba(51, 51, 51, 51)" /><polygon points="204,112 212,120 220,104" fill="rgba(51, 51, 51, 51)" /><polygon points="196,100 204,112 220,104" fill="rgba(51, 51, 51, 51)" /><polygon points="196,100 220,104 220,76" fill="rgba(51, 51, 51, 51)" /><polygon points="232,128 212,120 232,148" fill="rgba(51, 51, 51, 51)" /><polygon points="220,76 220,104 232,80" fill="rgba(50, 50, 50, 50)" /><polygon points="232,80 240,80 244,64" fill="rgba(51, 51, 51, 51)" /><polygon points="220,76 232,80 244,64" fill="rgba(51, 51, 51, 51)" /><polygon points="256,72 240,80 256,80" fill="rgba(51, 51, 51, 51)" /><polygon points="256,80 240,80 260,84" fill="rgba(51, 51, 51, 51)" /><polygon points="240,80 232,116 260,84" fill="rgba(51, 51, 51, 51)" /><polygon points="232,124 232,128 272,128" fill="rgba(51, 51, 51, 51)" /><polygon points="232,116 232,124 272,128" fill="rgba(49, 49, 49, 49)" /><polygon points="260,84 272,128 280,100" fill="rgba(51, 51, 51, 51)" /><polygon points="276,92 260,84 280,100" fill="rgba(51, 51, 51, 51)" /><polygon points="272,128 272,132 300,144" fill="rgba(51, 51, 51, 51)" /><polygon points="276,84 276,92 292,72" fill="rgba(51, 51, 51, 51)" /><polygon points="276,92 280,100 292,72" fill="rgba(51, 51, 51, 51)" /><polygon points="316,100 300,144 332,112" fill="rgba(51, 51, 51, 51)" /></svg>